HIERARCHY
ROOT Hips
{
	OFFSET	0.00	0.00	0.00
	CHANNELS 6 Xposition Yposition Zposition Zrotation Xrotation Yrotation
	JOINT LeftUpLeg
	{
		OFFSET	 0.126116	-0.014019	-0.065224
		CHANNELS 3 Zrotation Xrotation Yrotation
		JOINT LeftLeg
		{
			OFFSET	 0.000000	 0.000000	 0.569914
			CHANNELS 3 Zrotation Xrotation Yrotation
			JOINT LeftFoot
			{
				OFFSET	 0.000000	 0.000000	 0.544423
				CHANNELS 3 Zrotation Xrotation Yrotation
				JOINT LeftToeBase
				{
					OFFSET	 0.000000	 0.000000	 0.207117
					CHANNELS 3 Zrotation Xrotation Yrotation
					End Site
					{
						OFFSET	 0.000000	 0.000000	 0.207117
					}
				}
			}
		}
	}
	JOINT RightUpLeg
	{
		OFFSET	-0.124023	-0.008373	-0.065224
		CHANNELS 3 Zrotation Xrotation Yrotation
		JOINT RightLeg
		{
			OFFSET	 0.000000	 0.000000	 0.570047
			CHANNELS 3 Zrotation Xrotation Yrotation
			JOINT RightFoot
			{
				OFFSET	 0.000000	 0.000000	 0.544354
				CHANNELS 3 Zrotation Xrotation Yrotation
				JOINT RightToeBase
				{
					OFFSET	 0.000000	 0.000000	 0.207540
					CHANNELS 3 Zrotation Xrotation Yrotation
					End Site
					{
						OFFSET	 0.000000	 0.000000	 0.207540
					}
				}
			}
		}
	}
	JOINT Spine
	{
		OFFSET	 0.000184	-0.007763	 0.117403
		CHANNELS 3 Zrotation Xrotation Yrotation
		JOINT Spine1
		{
			OFFSET	 0.000000	 0.000000	 0.137269
			CHANNELS 3 Zrotation Xrotation Yrotation
			JOINT Spine2
			{
				OFFSET	 0.000000	 0.000000	 0.156879
				CHANNELS 3 Zrotation Xrotation Yrotation
				JOINT LeftShoulder
				{
					OFFSET	 0.080501	-0.002496	 0.160144
					CHANNELS 3 Zrotation Xrotation Yrotation
					JOINT LeftArm
					{
						OFFSET	 0.000000	 0.000000	 0.164363
						CHANNELS 3 Zrotation Xrotation Yrotation
						JOINT LeftForeArm
						{
							OFFSET	 0.000000	 0.000000	 0.364576
							CHANNELS 3 Zrotation Xrotation Yrotation
							JOINT LeftHand
							{
								OFFSET	 0.000000	 0.000000	 0.360812
								CHANNELS 3 Zrotation Xrotation Yrotation
								JOINT LeftHandIndex1
								{
									OFFSET	 0.000000	 0.000000	 0.086006
									CHANNELS 3 Zrotation Xrotation Yrotation
									JOINT LeftHandIndex2
									{
										OFFSET	 0.000000	 0.000000	 0.047236
										CHANNELS 3 Zrotation Xrotation Yrotation
										JOINT LeftHandIndex3
										{
											OFFSET	-0.004284	-0.000551	 0.038166
											CHANNELS 3 Zrotation Xrotation Yrotation
											End Site
											{
												OFFSET	-0.004284	-0.000551	 0.038166
											}
										}
									}
								}
							}
						}
					}
				}
				JOINT Neck
				{
					OFFSET	 0.000000	 0.000000	 0.176489
					CHANNELS 3 Zrotation Xrotation Yrotation
					JOINT Head
					{
						OFFSET	 0.000000	-0.001747	 0.077940
						CHANNELS 3 Zrotation Xrotation Yrotation
						End Site
						{
							OFFSET	 0.000000	-0.001747	 0.077940
						}
					}
				}
				JOINT RightShoulder
				{
					OFFSET	-0.080363	 0.000306	 0.159706
					CHANNELS 3 Zrotation Xrotation Yrotation
					JOINT RightArm
					{
						OFFSET	 0.000000	 0.000000	 0.164196
						CHANNELS 3 Zrotation Xrotation Yrotation
						JOINT RightForeArm
						{
							OFFSET	 0.000000	 0.000000	 0.365611
							CHANNELS 3 Zrotation Xrotation Yrotation
							JOINT RightHand
							{
								OFFSET	 0.000000	 0.000000	 0.360648
								CHANNELS 3 Zrotation Xrotation Yrotation
								JOINT RightHandIndex1
								{
									OFFSET	 0.000000	 0.000000	 0.069977
									CHANNELS 3 Zrotation Xrotation Yrotation
									JOINT RightHandIndex2
									{
										OFFSET	 0.000000	 0.000000	 0.052305
										CHANNELS 3 Zrotation Xrotation Yrotation
										JOINT RightHandIndex3
										{
											OFFSET	 0.009002	-0.000782	 0.042196
											CHANNELS 3 Zrotation Xrotation Yrotation
											End Site
											{
												OFFSET	 0.009002	-0.000782	 0.042196
											}
										}
									}
								}
							}
						}
					}
				}
			}
		}
	}
}
MOTION
Frames:    9
Frame Time: 0.03333334
-0.057670	-2.218649	 1.164045	 4.203405	-1.774186	-3.587908	 16.131520	-15.579390	-173.653400	 0.393845	-49.358120	 0.027978	 99.085160	 82.555050	-103.119500	-2.371177	 31.314130	-0.063126	-17.864030	-35.272340	-175.048800	 12.697330	-60.227650	 11.690440	 7.636635	 74.018170	-1.251951	 2.357955	 33.149220	 0.106689	 11.547330	 8.903171	 1.054291	 1.356274	 3.317168	 2.755469	-7.630052	-2.877456	-3.598259	-93.785250	 58.878850	 175.724900	 15.886850	 34.857380	-36.249830	-19.231950	 2.480196	-7.411751	-2.776078	-3.795111	-6.275359	-4.869425	 19.240950	-2.786447	-3.890101	 21.362930	 2.211473	-4.808243	 5.545675	 0.146960	-0.121178	-5.021071	 0.161070	-9.686712	 1.794751	 2.287798	 89.827080	 61.588420	-179.893100	-18.430590	 47.766080	 14.407460	 17.204990	 2.449615	 7.441039	-1.277952	 9.937826	 0.127076	 6.303367	 25.879560	-0.573469	 1.744486	 45.815440	-6.867028	 0.366813	 24.971270	 3.649873
-0.058865	-2.244627	 1.163876	 4.815685	-1.485896	-3.598010	 15.288030	-14.412000	-174.092400	 0.870456	-48.888740	 0.390083	 105.321700	 82.730910	-109.555900	-2.370099	 31.496910	-0.067256	-19.569730	-37.119320	-176.088000	 12.322040	-57.155620	 11.045180	 6.164859	 75.960330	-0.004660	 2.358580	 33.057980	 0.104563	 12.030240	 8.761505	 0.950305	 1.389220	 3.333352	 2.890049	-8.093311	-2.954253	-3.750111	-93.898540	 58.969150	 175.472600	 15.244970	 33.327320	-37.169570	-19.813370	 2.473293	-7.393251	-2.452539	-3.868983	-7.280784	-4.869149	 19.246590	-2.786513	-3.885573	 21.421000	 2.206861	-4.808259	 5.545467	 0.146969	-0.087325	-5.061502	 0.178319	-10.022130	 1.729571	 2.113182	 89.791430	 61.633560	-179.977700	-18.283390	 48.292980	 13.147890	 16.972270	 2.436263	 7.426427	-1.250251	 10.314960	-0.036575	 6.296065	 25.104420	-0.548453	 1.853675	 44.956680	-6.964722	 0.495903	 24.409260	 3.583697
-0.059865	-2.266149	 1.163050	 5.300914	-1.187111	-3.622582	 14.629520	-13.537360	-174.418300	 1.193702	-48.559210	 0.630448	 110.765200	 82.827890	-115.114900	-2.369251	 31.639380	-0.070474	-20.998000	-38.567760	-177.036400	 12.114980	-54.285920	 10.511970	 4.433529	 77.372000	 1.418923	 2.358926	 33.006000	 0.103361	 12.464150	 8.587789	 0.861280	 1.419436	 3.366062	 3.026726	-8.455346	-3.028799	-3.884798	-93.999340	 59.017000	 175.251400	 14.615840	 32.031570	-37.879030	-20.139080	 2.464933	-7.378333	-2.168046	-3.972251	-7.952352	-4.867677	 19.285630	-2.789338	-3.880821	 21.481830	 2.202033	-4.807250	 5.557427	 0.146273	-0.061143	-5.088793	 0.199547	-10.284670	 1.680658	 1.987310	 89.756940	 61.676430	 179.940000	-18.211520	 48.948390	 10.641550	 16.559500	 2.821699	 10.536900	-1.279233	 10.622860	-0.191836	 6.288193	 24.397090	-0.539764	 1.944689	 44.217690	-7.045800	 0.626084	 23.836620	 3.517996
-0.061041	-2.290932	 1.161423	 5.803744	-0.736535	-3.675439	 13.941090	-12.654150	-174.742200	 1.418448	-48.224350	 0.794817	 117.235900	 82.891460	-121.615600	-2.368396	 31.782030	-0.073708	-22.751770	-40.125580	-178.297800	 11.999450	-50.619390	 9.926525	 1.832682	 78.957300	 3.490283	 2.359023	 32.992640	 0.103051	 13.026600	 8.282387	 0.752268	 1.446014	 3.418877	 3.226722	-8.840377	-3.127137	-4.057885	-94.125850	 59.019230	 174.981000	 13.781870	 30.548670	-38.603080	-20.258470	 2.451005	-7.357508	-1.761049	-4.183577	-8.402567	-4.863653	 19.394780	-2.797821	-3.873594	 21.574160	 2.194693	-4.804152	 5.593942	 0.144134	-0.035346	-5.107605	 0.236484	-10.570730	 1.631999	 1.881732	 89.708760	 61.734780	 179.824500	-18.047440	 49.551040	 8.498954	 16.010780	 3.021298	 12.583930	-1.410077	 10.959930	-0.402961	 6.275303	 23.480820	-0.552646	 2.049766	 43.337360	-7.138974	 0.815807	 22.991570	 3.424174
-0.062210	-2.316741	 1.159117	 6.184000	-0.287804	-3.816396	 13.391560	-11.650540	-175.006900	 1.604549	-47.827810	 0.927833	 124.957900	 82.810100	-129.343700	-2.367230	 31.970350	-0.078002	-24.088740	-41.464960	-179.486500	 11.806380	-46.609490	 9.199676	 0.231681	 79.754620	 4.376555	 2.359760	 32.883310	 0.100514	 13.663580	 7.943172	 0.740581	 1.475068	 3.561280	 3.396449	-9.178471	-3.243519	-4.215910	-94.244640	 58.998550	 174.730700	 12.889130	 29.072300	-39.333640	-20.515340	 2.435380	-7.331469	-1.596014	-4.497558	-8.494118	-4.857030	 19.557310	-2.807158	-3.864254	 21.693150	 2.185200	-4.799043	 5.654091	 0.140609	-0.016964	-5.136967	 0.273169	-10.834100	 1.585118	 1.807851	 89.646200	 61.811160	 179.674100	-17.795050	 50.082140	 6.711201	 15.329550	 3.085725	 13.923150	-1.595217	 11.321100	-0.801032	 6.259516	 22.470320	-0.577769	 2.149935	 42.469990	-7.227336	 1.031873	 22.014190	 3.320175
-0.063342	-2.341945	 1.156437	 6.414664	 0.126973	-4.030186	 13.014800	-10.561800	-175.204900	 1.736349	-47.345720	 1.017689	 132.879300	 82.553840	-137.249600	-2.365857	 32.191300	-0.083040	-24.841220	-42.539240	 179.565900	 11.647350	-42.697580	 8.483783	-0.459724	 79.430780	 4.351059	 2.361093	 32.684850	 0.095911	 14.322180	 7.593382	 0.825759	 1.496448	 3.764094	 3.518975	-9.446061	-3.362714	-4.344359	-94.347170	 58.956080	 174.518700	 12.033990	 27.750550	-39.997630	-20.901630	 2.419455	-7.304360	-1.672500	-4.896861	-8.213624	-4.848226	 19.762120	-2.816738	-3.853435	 21.830520	 2.174216	-4.792275	 5.733762	 0.135933	-0.007332	-5.174902	 0.307010	-11.057370	 1.542978	 1.771396	 89.573880	 61.900340	 179.499000	-17.481600	 50.507220	 5.388583	 14.564900	 3.028371	 14.479510	-1.817731	 11.680290	-1.360140	 6.241604	 21.437360	-0.613432	 2.238619	 41.678140	-7.305165	 1.258198	 20.973360	 3.214562
-0.064683	-2.368182	 1.153348	 6.550801	 0.410153	-4.226147	 12.670480	-9.224893	-175.482700	 1.822855	-46.750760	 1.070925	 139.522800	 82.362290	-143.825300	-2.363098	 32.619680	-0.092873	-24.951790	-43.348860	 178.876800	 11.239190	-39.026890	 7.640495	 1.360604	 81.000030	 1.842702	 2.358664	 33.045990	 0.104284	 14.931840	 7.291901	 0.931114	 1.504463	 4.064487	 3.565439	-9.646952	-3.491064	-4.420906	-94.419690	 58.914720	 174.370800	 11.128700	 26.625870	-40.596950	-21.213170	 2.401386	-7.276645	-1.855842	-5.106975	-7.935215	-4.838158	 19.973170	-2.821348	-3.840389	 21.995510	 2.160952	-4.782905	 5.843877	 0.129452	 0.005658	-5.220313	 0.328321	-11.221520	 1.497819	 1.721009	 89.510960	 61.968820	 179.345900	-17.051630	 50.827890	 4.380933	 13.766460	 2.886465	 14.293980	-1.971402	 11.933780	-2.070807	 6.221366	 20.342750	-0.655682	 2.364965	 40.509540	-7.415381	 1.495582	 19.863200	 3.107565
-0.066275	-2.394947	 1.149587	 6.622097	 0.602665	-4.408744	 12.346190	-7.715106	-175.816100	 1.880175	-46.096100	 1.100670	 145.573100	 82.204410	-149.775300	-2.359267	 33.191440	-0.106109	-24.411760	-44.372200	 178.501900	 10.855740	-36.148280	 6.912294	 8.216853	 84.065250	-5.615364	 2.353405	 33.793440	 0.121782	 15.496140	 7.024070	 1.051080	 1.501513	 4.435075	 3.556563	-9.791015	-3.628293	-4.457091	-94.471530	 58.874090	 174.267000	 10.221580	 25.675320	-41.167110	-21.470990	 2.379979	-7.242149	-2.112143	-5.190912	-7.658599	-4.827206	 20.188620	-2.822520	-3.825766	 22.179660	 2.146097	-4.771725	 5.975058	 0.121704	 0.020943	-5.270937	 0.340986	-11.334120	 1.452299	 1.662170	 89.454420	 62.023040	 179.208000	-16.535610	 51.055550	 3.570522	 12.930320	 2.709492	 13.627960	-2.070822	 12.115130	-2.887020	 6.199112	 19.205150	-0.702519	 2.512638	 39.080260	-7.543122	 1.739208	 18.704510	 3.001865
-0.068198	-2.421352	 1.144909	 6.744547	 0.675241	-4.564117	 11.956730	-6.117084	-176.211800	 1.984617	-45.494680	 1.164004	 150.297900	 82.178980	-154.423300	-2.352057	 34.200030	-0.129785	-24.087570	-45.864390	 178.066400	 10.919290	-34.408760	 6.661445	 15.125680	 85.133010	-13.105090	 2.346463	 34.718120	 0.143746	 15.913970	 6.972097	 1.139709	 1.489022	 4.628415	 3.597491	-9.885023	-3.741871	-4.507712	-94.508210	 58.871970	 174.189500	 9.333298	 24.968910	-41.679730	-21.502820	 2.355138	-7.207743	-2.322552	-5.508822	-7.680386	-4.829563	 20.340090	-2.880778	-3.810880	 22.366110	 2.130982	-4.757410	 6.142724	 0.111759	 0.050590	-5.322012	 0.348719	-11.380500	 1.449612	 1.543623	 89.409950	 62.021960	 179.100500	-15.934890	 51.221740	 2.376365	 12.136690	 2.585443	 13.531640	-2.045334	 12.085030	-3.639386	 6.182036	 18.048570	-0.713005	 2.659990	 37.582210	-7.669323	 1.981485	 17.533240	 2.901025
